<svg id="Layer_1" data-name="Layer 1" xmlns="http://www.w3.org/2000/svg" xmlns:xlink="http://www.w3.org/1999/xlink" viewBox="0 0 2800 417"><defs><style>.cls-1{fill:none;}.cls-2,.cls-4{opacity:0.75;}.cls-2{fill:url(#linear-gradient);}.cls-3{clip-path:url(#clip-path);}.cls-5{fill:url(#linear-gradient-2);}.cls-6{clip-path:url(#clip-path-2);}.cls-7{fill:url(#linear-gradient-3);}</style><linearGradient id="linear-gradient" x1="1049" y1="1024.22" x2="1754.43" y2="-197.62" gradientUnits="userSpaceOnUse"><stop offset="0" stop-color="#69bcf8"/><stop offset="0.15" stop-color="#6cbdef"/><stop offset="0.4" stop-color="#73bfd5"/><stop offset="0.71" stop-color="#7fc2ac"/><stop offset="0.99" stop-color="#8cc681"/></linearGradient><clipPath id="clip-path"><rect class="cls-1" x="-1" y="1" width="2800" height="417"/></clipPath><linearGradient id="linear-gradient-2" x1="-3.02" y1="563" x2="2801.02" y2="563" gradientUnits="userSpaceOnUse"><stop offset="0" stop-color="#bf74c2"/><stop offset="0.27" stop-color="#9474d2"/><stop offset="0.39" stop-color="#8074da"/><stop offset="0.47" stop-color="#8974d6"/><stop offset="0.62" stop-color="#a374cd"/><stop offset="0.8" stop-color="#cc74bd"/><stop offset="0.99" stop-color="#ff74a9"/></linearGradient><clipPath id="clip-path-2"><rect class="cls-1" x="-1" y="38" width="2800" height="380"/></clipPath><linearGradient id="linear-gradient-3" x1="185.19" y1="-148.88" x2="2640.81" y2="1268.88" gradientUnits="userSpaceOnUse"><stop offset="0" stop-color="#f77077"/><stop offset="0.19" stop-color="#f87978"/><stop offset="0.51" stop-color="#f99379"/><stop offset="0.91" stop-color="#fbbc7c"/><stop offset="0.99" stop-color="#fcc57d"/></linearGradient></defs><title>Untitled-3</title><path class="cls-2" d="M-1,418H2799S2287,1,1399,1-1,418-1,418Z"/><g class="cls-3"><g class="cls-4"><path class="cls-5" d="M2799,962a2503.45,2503.45,0,0,1-379,82c-22,3-44,5-66,8-214,24-421,19-636-12-64-9-123-20-188-34-47-11-90-20-136-33l-63-15c-18-5-36-10-54-14-149-40-292-72-443-87l-78-6c-56-3-111-4-167-2-16,1-31,1-47,2-18,1-37,3-55,4-99,8-193,25-292,48-17,4-33,8-50,13-34,10-67,19-101,30-15,6-30,10-45,16C-8,696,6,430-1,164A2503.45,2503.45,0,0,1,378,82c22-3,44-5,66-8,214-24,421-19,636,12,64,9,123,20,188,34,47,11,90,20,136,33l63,15c18,5,36,10,54,14,149,40,292,72,443,87l78,6c56,3,111,4,167,2,16-1,31-1,47-2,18-1,37-3,55-4,99-8,193-25,292-48,17-4,33-8,50-13,34-10,67-19,101-30,15-6,30-10,45-16,7,266-7,532,0,798Z"/></g></g><g class="cls-6"><g class="cls-4"><path class="cls-7" d="M2833,936c-14-4-28-8-42-13-251-75-505-101-764-78-48,5-93,10-141,17-47,8-90,16-138,26s-91,21-138,33c-15,4-29,7-43,12-8,2-15,3-23,5-1,0-3,2-4,2-8,2-15,3-23,5-1,0-3,2-4,2-8,2-15,3-23,5-51,14-98,27-150,39l-18,3c-87,21-169,37-257,49-7,1-14,3-21,4-178,23-351,31-528,19-35-3-70-5-105-9-30-4-58-7-88-11-18-3-36-5-54-8-91-16-177-31-263-57C7,715-10,450-7,184c14,4,28,8,42,13,251,75,505,101,764,78,48-5,93-10,141-17,47-8,90-16,138-26s91-21,138-33c15-4,29-7,43-12,8-2,15-3,23-5,1,0,3-2,4-2,8-2,15-3,23-5,1,0,3-2,4-2,8-2,15-3,23-5,51-14,98-27,150-39l18-3c87-21,169-37,257-49,7-1,14-3,21-4,178-23,351-31,528-19,35,3,70,5,105,9,30,4,58,7,88,11,18,3,36,5,54,8,91,16,177,31,263,57-1,266,16,531,13,797Z"/></g></g></svg>