<svg xmlns="http://www.w3.org/2000/svg" xmlns:xlink="http://www.w3.org/1999/xlink" viewBox="0 0 2800 1071"><defs><style>.cls-1{fill:none;}.cls-2,.cls-4{opacity:0.75;}.cls-2{fill:url(#linear-gradient);}.cls-3{clip-path:url(#clip-path);}.cls-5{fill:url(#linear-gradient-2);}.cls-6{clip-path:url(#clip-path-2);}.cls-7{fill:url(#linear-gradient-3);}</style><linearGradient id="linear-gradient" x1="1056.36" y1="1023.22" x2="1761.78" y2="-198.62" gradientUnits="userSpaceOnUse"><stop offset="0" stop-color="#69bcf8"/><stop offset="0.15" stop-color="#6cbdef"/><stop offset="0.4" stop-color="#73bfd5"/><stop offset="0.71" stop-color="#7fc2ac"/><stop offset="0.99" stop-color="#8cc681"/></linearGradient><clipPath id="clip-path"><rect class="cls-1" x="0" width="2800" height="417"/></clipPath><linearGradient id="linear-gradient-2" x1="4.33" y1="562" x2="2808.38" y2="562" gradientUnits="userSpaceOnUse"><stop offset="0" stop-color="#bf74c2"/><stop offset="0.27" stop-color="#9474d2"/><stop stop-color="#8074da"/><stop stop-color="#8974d6"/><stop stop-color="#a374cd"/><stop offset="0.8" stop-color="#cc74bd"/><stop offset="0.99" stop-color="#ff74a9"/></linearGradient><clipPath id="clip-path-2"><rect class="cls-1" x="0" y="37" width="2800" height="380"/></clipPath><linearGradient id="linear-gradient-3" x1="192.54" y1="-149.88" x2="2648.17" y2="1267.88" gradientUnits="userSpaceOnUse"><stop offset="0" stop-color="#f77077"/><stop offset="0.19" stop-color="#f87978"/><stop offset="0.51" stop-color="#f99379"/><stop offset="0.91" stop-color="#fbbc7c"/><stop offset="0.99" stop-color="#fcc57d"/></linearGradient></defs><title>Asset 1</title><g id="Layer_2" data-name="Layer 2"><g id="Layer_1-2" data-name="Layer 1"><path class="cls-2" d="M6.36,417h2800s-512-417-1400-417S6.36,417,6.36,417Z"/><g class="cls-3"><g class="cls-4"><path class="cls-5" d="M2800,961a2503.45,2503.45,0,0,1-379,82c-22,3-44,5-66,8-214,24-421,19-636-12-64-9-123-20-188-34-47-11-90-20-136-33l-63-15c-18-5-36-10-54-14-149-40-292-72-443-87l-78-6c-56-3-111-4-167-2-16,1-31,1-47,2-18,1-37,3-55,4-99,8-193,25-292,48-17,4-33,8-50,13-34,10-67,19-101,30-15,6-30,10-45,16-7-266,7-532,0-798a2503.45,2503.45,0,0,1,379-82c22-3,44-5,66-8,214-24,421-19,636,12,64,9,123,20,188,34,47,11,90,20,136,33l63,15c18,5,36,10,54,14,149,40,292,72,443,87l78,6c56,3,111,4,167,2,16-1,31-1,47-2,18-1,37-3,55-4,99-8,193-25,292-48,17-4,33-8,50-13,34-10,67-19,101-30,15-6,30-10,45-16,7,266-7,532,0,798Z"/></g></g><g class="cls-6"><g class="cls-4"><path class="cls-7" d="M2840.36,935c-14-4-28-8-42-13-251-75-505-101-764-78-48,5-93,10-141,17-47,8-90,16-138,26s-91,21-138,33c-15,4-29,7-43,12-8,2-15,3-23,5-1,0-3,2-4,2-8,2-15,3-23,5-1,0-3,2-4,2-8,2-15,3-23,5-51,14-98,27-150,39l-18,3c-87,21-169,37-257,49-7,1-14,3-21,4-178,23-351,31-528,19-35-3-70-5-105-9-30-4-58-7-88-11-18-3-36-5-54-8-91-16-177-31-263-57,1-266-16-531-13-797,14,4,28,8,42,13,251,75,505,101,764,78,48-5,93-10,141-17,47-8,90-16,138-26s91-21,138-33c15-4,29-7,43-12,8-2,15-3,23-5,1,0,3-2,4-2,8-2,15-3,23-5,1,0,3-2,4-2,8-2,15-3,23-5,51-14,98-27,150-39l18-3c87-21,169-37,257-49,7-1,14-3,21-4,178-23,351-31,528-19,35,3,70,5,105,9,30,4,58,7,88,11,18,3,36,5,54,8,91,16,177,31,263,57-1,266,16,531,13,797Z"/></g></g></g></g></svg>